<svg xmlns="http://www.w3.org/2000/svg" version="1.1" xmlns:xlink="http://www.w3.org/1999/xlink" xmlns:svgjs="http://svgjs.dev/svgjs" width="1500" height="1500" viewBox="0 0 1500 1500"><rect width="1500" height="1500" fill="#ffffff"></rect><g transform="matrix(0.6666666666666666,0,0,0.6666666666666666,249.39393939393938,676.5451256281407)"><svg viewBox="0 0 396 58" data-background-color="#ffffff" preserveAspectRatio="xMidYMid meet" height="219" width="1500" xmlns="http://www.w3.org/2000/svg" xmlns:xlink="http://www.w3.org/1999/xlink"><g id="tight-bounds" transform="matrix(1,0,0,1,0.2400000000000091,0.18070351758794345)"><svg viewBox="0 0 395.52 57.63859296482412" height="57.63859296482412" width="395.52"><g><svg viewBox="0 0 395.52 57.63859296482412" height="57.63859296482412" width="395.52"><g><svg viewBox="0 0 395.52 57.63859296482412" height="57.63859296482412" width="395.52"><g id="textblocktransform"><svg viewBox="0 0 395.52 57.63859296482412" height="57.63859296482412" width="395.52" id="textblock"><g><svg viewBox="0 0 395.52 57.63859296482412" height="57.63859296482412" width="395.52"><g transform="matrix(1,0,0,1,0,0)"><svg width="395.52" viewBox="2.93 -36.57 252.62 36.81" height="57.63859296482412" data-palette-color="#000000"><path d="M14.11 0.2L2.93-35.99 9.62-35.99 17.19-7.76 17.19 0.2 14.11 0.2ZM19.19-9.33L26.81-35.99 33.45-35.99 21.73 0.2 19.19 0.2 19.19-9.33ZM46.82-35.99L46.82 0 40.87 0 40.87-35.99 46.82-35.99ZM80.17-32.67L76.12-29.05Q75-30.32 73.73-30.96 72.46-31.59 70.99-31.69L70.99-31.69 70.99-36.52Q76.46-36.28 80.17-32.67L80.17-32.67ZM70.99 0.24L70.99-4.59Q72.46-4.74 73.75-5.37 75.04-6.01 76.12-7.23L76.12-7.23 80.17-3.66Q78.32-1.86 76.02-0.88 73.73 0.1 70.99 0.24L70.99 0.24ZM55.17-18.16L55.17-18.16Q55.17-22.51 56.22-25.83 57.27-29.15 59.13-31.45 60.98-33.74 63.5-35.01 66.01-36.28 68.99-36.52L68.99-36.52 68.99-31.64Q67.38-31.4 65.96-30.54 64.55-29.69 63.47-28.08 62.4-26.46 61.79-24 61.18-21.53 61.13-18.16L61.13-18.16Q61.18-14.75 61.79-12.3 62.4-9.86 63.47-8.2 64.55-6.54 65.99-5.66 67.43-4.79 68.99-4.59L68.99-4.59 68.99 0.2Q66.01 0 63.5-1.27 60.98-2.54 59.13-4.83 57.27-7.13 56.22-10.47 55.17-13.82 55.17-18.16ZM105.56-35.94L118.06 0 112 0 102.68-26.95 93.25 0 87.15 0 99.75-35.94 105.56-35.94ZM99.36-11.43L105.9-11.43 107.32-7.47 97.99-7.47 99.36-11.43ZM142.18-30.42L142.18-30.42Q141.93-30.52 141.59-30.76 141.25-31.01 140.62-31.23 139.98-31.45 139-31.59 138.03-31.74 136.51-31.64L136.51-31.64 136.51-36.57Q138.66-36.52 140.88-36.11 143.11-35.69 144.47-34.81L144.47-34.81Q144.18-34.18 143.79-33.42 143.4-32.67 143.06-32.01 142.71-31.35 142.47-30.91 142.23-30.47 142.18-30.42ZM125.33-26.51L125.33-26.51Q125.33-28.66 126.06-30.37 126.8-32.08 128.04-33.37 129.29-34.67 130.97-35.42 132.66-36.18 134.51-36.43L134.51-36.43 134.51-31.3Q132.95-30.76 131.92-29.42 130.9-28.08 130.9-26.71L130.9-26.71Q130.9-24.8 131.92-23.63 132.95-22.46 134.51-21.58L134.51-21.58 134.51-16.02Q132.9-16.8 131.29-17.7 129.68-18.6 128.36-19.82 127.04-21.04 126.19-22.66 125.33-24.27 125.33-26.51ZM125.09-2.39L126.11-6.59Q126.8-6.2 127.85-5.83 128.9-5.47 130.02-5.15 131.14-4.83 132.27-4.64 133.39-4.44 134.37-4.44L134.37-4.44 134.51-4.44 134.51 0.2 134.41 0.2Q133.24 0.2 132 0.07 130.75-0.05 129.48-0.34 128.21-0.63 127.07-1.15 125.92-1.66 125.09-2.39L125.09-2.39ZM136.51-14.89L136.51-20.61Q138.12-19.87 139.81-19.04 141.49-18.21 142.86-17.02 144.23-15.82 145.11-14.11 145.99-12.4 145.99-9.86L145.99-9.86Q145.99-8.11 145.33-6.45 144.67-4.79 143.47-3.44 142.28-2.1 140.52-1.17 138.76-0.24 136.51 0.05L136.51 0.05 136.51-4.64Q140.52-5.62 140.52-9.96L140.52-9.96Q140.52-11.67 139.39-12.79 138.27-13.92 136.51-14.89L136.51-14.89ZM165.51-35.99L171.47-35.99 171.47-4.44 188.02-4.44 188.02 0 165.51 0 165.51-35.99ZM210.97-35.94L223.47 0 217.41 0 208.09-26.95 198.66 0 192.56 0 205.16-35.94 210.97-35.94ZM204.77-11.43L211.31-11.43 212.73-7.47 203.4-7.47 204.77-11.43ZM248.22-18.95L248.22-18.95Q249.35-18.8 250.61-18.21 251.88-17.63 252.98-16.55 254.08-15.48 254.81-13.94 255.55-12.4 255.55-10.4L255.55-10.4Q255.55-7.96 254.81-6.2 254.08-4.44 252.98-3.3 251.88-2.15 250.59-1.49 249.3-0.83 248.1-0.49 246.9-0.15 245.98-0.07 245.05 0 244.76 0L244.76 0 239.09 0 239.09-4.3 244.41-4.3Q247-4.3 248.47-5.96 249.93-7.62 249.93-10.4L249.93-10.4Q249.93-13.04 248.42-14.84 246.9-16.65 243.97-16.65L243.97-16.65 239.09-16.65 239.09-20.61 241.44-20.61Q242.51-20.61 243.63-20.65 244.76-20.7 245.73-21.19 246.71-21.68 247.32-22.85 247.93-24.02 247.93-26.22L247.93-26.22Q247.93-27.1 247.69-28.05 247.44-29 246.71-29.79 245.98-30.57 244.61-31.05 243.24-31.54 241-31.54L241-31.54 239.09-31.54 239.09-35.99 241.58-35.99Q243.88-35.99 246.02-35.45 248.17-34.91 249.83-33.74 251.49-32.57 252.47-30.69 253.45-28.81 253.45-26.22L253.45-26.22Q253.45-24.71 252.96-23.46 252.47-22.22 251.74-21.29 251.01-20.36 250.05-19.75 249.1-19.14 248.22-18.95ZM231.23 0L231.23-35.99 237.09-35.99 237.09 0 231.23 0Z" opacity="1" transform="matrix(1,0,0,1,0,0)" fill="#000000" class="wordmark-text-0" data-fill-palette-color="primary" id="text-0"></path></svg></g></svg></g></svg></g></svg></g></svg></g><defs></defs></svg><rect width="395.52" height="57.63859296482412" fill="none" stroke="none" visibility="hidden"></rect></g></svg></g></svg>